<?xml version="1.0" encoding="UTF-8" standalone="no"?>
<svg
   xmlns:dc="http://purl.org/dc/elements/1.1/"
   xmlns:cc="http://creativecommons.org/ns#"
   xmlns:rdf="http://www.w3.org/1999/02/22-rdf-syntax-ns#"
   xmlns:svg="http://www.w3.org/2000/svg"
   xmlns="http://www.w3.org/2000/svg"
   xmlns:sodipodi="http://sodipodi.sourceforge.net/DTD/sodipodi-0.dtd"
   xmlns:inkscape="http://www.inkscape.org/namespaces/inkscape"
   width="1mm"
   height="1mm"
   viewBox="0 0 1 1"
   version="1.1"
   id="svg8"
   inkscape:version="1.0.1 (3bc2e813f5, 2020-09-07)"
   sodipodi:docname="light_theme.svg">
  <defs
     id="defs2" />
  <sodipodi:namedview
     id="base"
     pagecolor="#ffffff"
     bordercolor="#666666"
     borderopacity="1.0"
     inkscape:pageopacity="0.0"
     inkscape:pageshadow="2"
     inkscape:zoom="128"
     inkscape:cx="1.3559456"
     inkscape:cy="1.8885861"
     inkscape:document-units="mm"
     inkscape:current-layer="layer1"
     inkscape:document-rotation="0"
     showgrid="false"
     inkscape:window-width="1346"
     inkscape:window-height="1009"
     inkscape:window-x="2083"
     inkscape:window-y="1"
     inkscape:window-maximized="0" />
  <metadata
     id="metadata5">
    <rdf:RDF>
      <cc:Work
         rdf:about="">
        <dc:format>image/svg+xml</dc:format>
        <dc:type
           rdf:resource="http://purl.org/dc/dcmitype/StillImage" />
        <dc:title />
      </cc:Work>
    </rdf:RDF>
  </metadata>
  <g
     inkscape:label="Layer 1"
     inkscape:groupmode="layer"
     id="layer1">
    <path
       id="rect863"
       style="fill:#ca3e47;fill-opacity:1;stroke:none;stroke-width:0.377953;stroke-linecap:round;stroke-linejoin:round;stroke-miterlimit:4;stroke-dasharray:none;stroke-opacity:1;paint-order:stroke fill markers"
       d="M 0.625 0 C 0.27875 0 0 0.27875 0 0.625 L 0 3.1542969 C 0 3.5005469 0.27875 3.7792969 0.625 3.7792969 L 3.1542969 3.7792969 C 3.5005469 3.7792969 3.7792969 3.5005469 3.7792969 3.1542969 L 3.7792969 0.625 C 3.7792969 0.27875 3.5005469 0 3.1542969 0 L 0.625 0 z M 1.8730469 0.19140625 A 0.1649023 0.1649023 0 0 1 1.875 0.19140625 A 0.1649023 0.1649023 0 0 1 1.890625 0.19140625 A 0.1649023 0.1649023 0 0 1 2.0527344 0.35351562 L 2.0527344 0.8046875 A 0.1649023 0.1649023 0 0 1 1.890625 0.97460938 A 0.1649023 0.1649023 0 0 1 1.7265625 0.8046875 L 1.7265625 0.35351562 A 0.1649023 0.1649023 0 0 1 1.8730469 0.19140625 z M 0.796875 0.64257812 A 0.1649023 0.1649023 0 0 1 0.921875 0.68554688 L 1.2402344 1.0039062 A 0.1649023 0.1649023 0 0 1 1.2402344 1.2402344 A 0.1649023 0.1649023 0 0 1 1.0039062 1.2402344 L 0.68554688 0.921875 A 0.1649023 0.1649023 0 0 1 0.68554688 0.68554688 A 0.1649023 0.1649023 0 0 1 0.796875 0.64257812 z M 2.9746094 0.64257812 A 0.1649023 0.1649023 0 0 1 3.09375 0.68554688 A 0.1649023 0.1649023 0 0 1 3.09375 0.921875 L 2.7753906 1.2402344 A 0.1649023 0.1649023 0 0 1 2.5390625 1.2402344 A 0.1649023 0.1649023 0 0 1 2.5390625 1.0039062 L 2.8574219 0.68554688 A 0.1649023 0.1649023 0 0 1 2.9746094 0.64257812 z M 1.890625 1.2910156 C 2.2207668 1.2910156 2.4882812 1.5604832 2.4882812 1.890625 C 2.4882813 2.2207668 2.2207668 2.4882813 1.890625 2.4882812 C 1.5604832 2.4882812 1.2851562 2.2207668 1.2851562 1.890625 C 1.2851563 1.5604832 1.5604832 1.2910156 1.890625 1.2910156 z M 1.890625 1.5878906 C 1.7208989 1.5878906 1.5800781 1.7208988 1.5800781 1.890625 C 1.5800781 2.0603512 1.7208989 2.1933594 1.890625 2.1933594 C 2.0603511 2.1933594 2.1933594 2.0603512 2.1933594 1.890625 C 2.1933594 1.7208988 2.0603511 1.5878906 1.890625 1.5878906 z M 0.35351562 1.7265625 L 0.8046875 1.7265625 A 0.1649023 0.1649023 0 0 1 0.97460938 1.890625 A 0.1649023 0.1649023 0 0 1 0.8046875 2.0527344 L 0.35351562 2.0527344 A 0.1649023 0.1649023 0 0 1 0.19140625 1.890625 A 0.1649023 0.1649023 0 0 1 0.35351562 1.7265625 z M 2.9746094 1.7265625 L 3.4257812 1.7265625 A 0.1649023 0.1649023 0 0 1 3.5878906 1.890625 A 0.1649023 0.1649023 0 0 1 3.4257812 2.0527344 L 2.9746094 2.0527344 A 0.1649023 0.1649023 0 0 1 2.8046875 1.890625 A 0.1649023 0.1649023 0 0 1 2.9746094 1.7265625 z M 1.1210938 2.4882812 A 0.1649023 0.1649023 0 0 1 1.2402344 2.5390625 A 0.1649023 0.1649023 0 0 1 1.2402344 2.7753906 L 0.921875 3.09375 A 0.1649023 0.1649023 0 0 1 0.68554688 3.09375 A 0.1649023 0.1649023 0 0 1 0.68554688 2.8574219 L 1.0039062 2.5390625 A 0.1649023 0.1649023 0 0 1 1.1210938 2.4882812 z M 2.6503906 2.4882812 A 0.1649023 0.1649023 0 0 1 2.7753906 2.5390625 L 3.09375 2.8574219 A 0.1649023 0.1649023 0 0 1 3.09375 3.09375 A 0.1649023 0.1649023 0 0 1 2.8574219 3.09375 L 2.5390625 2.7753906 A 0.1649023 0.1649023 0 0 1 2.5390625 2.5390625 A 0.1649023 0.1649023 0 0 1 2.6503906 2.4882812 z M 1.890625 2.8046875 A 0.1649023 0.1649023 0 0 1 2.0527344 2.9746094 L 2.0527344 3.4257812 A 0.1649023 0.1649023 0 0 1 1.890625 3.5878906 A 0.1649023 0.1649023 0 0 1 1.7265625 3.4257812 L 1.7265625 2.9746094 A 0.1649023 0.1649023 0 0 1 1.890625 2.8046875 z "
       transform="scale(0.26458333)" />
  </g>
</svg>
