<?xml version="1.0" encoding="UTF-8" standalone="no"?>
<svg
   xmlns:dc="http://purl.org/dc/elements/1.1/"
   xmlns:cc="http://creativecommons.org/ns#"
   xmlns:rdf="http://www.w3.org/1999/02/22-rdf-syntax-ns#"
   xmlns:svg="http://www.w3.org/2000/svg"
   xmlns="http://www.w3.org/2000/svg"
   xmlns:sodipodi="http://sodipodi.sourceforge.net/DTD/sodipodi-0.dtd"
   xmlns:inkscape="http://www.inkscape.org/namespaces/inkscape"
   width="1mm"
   height="1mm"
   viewBox="0 0 0.99999999 0.99999999"
   version="1.1"
   id="svg8"
   sodipodi:docname="logo.svg"
   inkscape:version="1.0.1 (3bc2e813f5, 2020-09-07)">
  <defs
     id="defs2" />
  <sodipodi:namedview
     id="base"
     pagecolor="#ffffff"
     bordercolor="#666666"
     borderopacity="1.0"
     inkscape:pageopacity="0.0"
     inkscape:pageshadow="2"
     inkscape:zoom="126.71353"
     inkscape:cx="0.44831556"
     inkscape:cy="1.9762995"
     inkscape:document-units="mm"
     inkscape:current-layer="layer1"
     inkscape:document-rotation="0"
     showgrid="false"
     inkscape:window-width="1920"
     inkscape:window-height="1017"
     inkscape:window-x="1912"
     inkscape:window-y="-8"
     inkscape:window-maximized="1" />
  <metadata
     id="metadata5">
    <rdf:RDF>
      <cc:Work
         rdf:about="">
        <dc:format>image/svg+xml</dc:format>
        <dc:type
           rdf:resource="http://purl.org/dc/dcmitype/StillImage" />
      </cc:Work>
    </rdf:RDF>
  </metadata>
  <g
     inkscape:label="Layer 1"
     inkscape:groupmode="layer"
     id="layer1"
     transform="translate(21.922617,9.0714283)">
    <path
       id="rect916"
       style="opacity:1;fill:#ffaa00;fill-opacity:1;stroke:none;stroke-width:0.338051;stroke-linecap:round;stroke-linejoin:round;stroke-miterlimit:4;stroke-dasharray:none;stroke-opacity:1"
       d="M 1.1621094 0 C 0.72725953 0 0.37890625 0.35031635 0.37890625 0.78515625 L 0.37890625 2.9941406 C 0.37890625 3.4289791 0.72727087 3.7792969 1.1621094 3.7792969 L 2.6171875 3.7792969 C 3.0520373 3.7792969 3.4023438 3.4289806 3.4023438 2.9941406 L 3.4023438 0.78515625 C 3.4023438 0.35031786 3.0520297 -5.9211895e-16 2.6171875 0 L 1.1621094 0 z M 1.3828125 0.41015625 A 0.15953234 0.15953234 0 0 1 1.40625 0.41015625 A 0.15953234 0.15953234 0 0 1 1.5605469 0.57226562 L 1.5605469 0.890625 L 1.8769531 0.890625 A 0.15953234 0.15953234 0 0 1 2.0410156 1.0449219 A 0.15953234 0.15953234 0 0 1 1.8769531 1.2070312 L 1.5605469 1.2070312 L 1.5605469 1.5253906 A 0.15953234 0.15953234 0 0 1 1.40625 1.6875 A 0.15953234 0.15953234 0 0 1 1.2421875 1.5253906 L 1.2421875 1.2070312 L 0.92578125 1.2070312 A 0.15953234 0.15953234 0 0 1 0.76367188 1.0449219 A 0.15953234 0.15953234 0 0 1 0.92578125 0.890625 L 1.2421875 0.890625 L 1.2421875 0.57226562 A 0.15953234 0.15953234 0 0 1 1.3828125 0.41015625 z M 2.625 0.84765625 A 0.19143889 0.19143889 0 0 1 2.6328125 0.84765625 A 0.19143889 0.19143889 0 0 1 2.8242188 1.0390625 A 0.19143889 0.19143889 0 0 1 2.6328125 1.2304688 A 0.19143889 0.19143889 0 0 1 2.4414062 1.0390625 A 0.19143889 0.19143889 0 0 1 2.625 0.84765625 z M 2.859375 2.0117188 A 0.15953234 0.15953234 0 0 1 2.9257812 2.0195312 A 0.15953234 0.15953234 0 0 1 3.0214844 2.21875 L 2.7050781 3.1777344 A 0.15953234 0.15953234 0 0 1 2.5058594 3.28125 A 0.15953234 0.15953234 0 0 1 2.4023438 3.0742188 L 2.71875 2.1230469 A 0.15953234 0.15953234 0 0 1 2.859375 2.0117188 z M 0.93945312 2.4550781 L 1.9003906 2.4550781 A 0.15953234 0.15953234 0 0 1 2.0625 2.6171875 A 0.15953234 0.15953234 0 0 1 1.9003906 2.7714844 L 0.93945312 2.7714844 A 0.15953234 0.15953234 0 0 1 0.78515625 2.6171875 A 0.15953234 0.15953234 0 0 1 0.93945312 2.4550781 z "
       transform="matrix(0.26458333,0,0,0.26458333,-21.922617,-9.0714283)" />
  </g>
</svg>
