<?xml version="1.0" encoding="UTF-8" standalone="no"?>
<svg
   xmlns:dc="http://purl.org/dc/elements/1.1/"
   xmlns:cc="http://creativecommons.org/ns#"
   xmlns:rdf="http://www.w3.org/1999/02/22-rdf-syntax-ns#"
   xmlns:svg="http://www.w3.org/2000/svg"
   xmlns="http://www.w3.org/2000/svg"
   xmlns:sodipodi="http://sodipodi.sourceforge.net/DTD/sodipodi-0.dtd"
   xmlns:inkscape="http://www.inkscape.org/namespaces/inkscape"
   width="1mm"
   height="1mm"
   viewBox="0 0 1 1"
   version="1.1"
   id="svg8"
   sodipodi:docname="scores.svg"
   inkscape:version="1.0.1 (3bc2e813f5, 2020-09-07)">
  <defs
     id="defs2" />
  <sodipodi:namedview
     id="base"
     pagecolor="#ffffff"
     bordercolor="#666666"
     borderopacity="1.0"
     inkscape:pageopacity="0.0"
     inkscape:pageshadow="2"
     inkscape:zoom="89.6"
     inkscape:cx="1.8999731"
     inkscape:cy="2.7168133"
     inkscape:document-units="mm"
     inkscape:current-layer="layer1"
     inkscape:document-rotation="0"
     showgrid="false"
     inkscape:window-width="1920"
     inkscape:window-height="1017"
     inkscape:window-x="1912"
     inkscape:window-y="-8"
     inkscape:window-maximized="1" />
  <metadata
     id="metadata5">
    <rdf:RDF>
      <cc:Work
         rdf:about="">
        <dc:format>image/svg+xml</dc:format>
        <dc:type
           rdf:resource="http://purl.org/dc/dcmitype/StillImage" />
      </cc:Work>
    </rdf:RDF>
  </metadata>
  <g
     inkscape:label="Layer 1"
     inkscape:groupmode="layer"
     id="layer1">
    <path
       id="rect852"
       style="fill:#d18bff;fill-opacity:1;stroke:none;stroke-width:0.188976;stroke-linecap:round;stroke-linejoin:round;stroke-miterlimit:4;stroke-dasharray:none"
       d="M 1.0253906 0 C 0.66677463 0 0.37890625 0.28786832 0.37890625 0.64648438 L 0.37890625 3.1328125 C 0.37890625 3.4914286 0.66677463 3.7792969 1.0253906 3.7792969 L 2.7539062 3.7792969 C 3.1125223 3.7792969 3.4023438 3.4914286 3.4023438 3.1328125 L 3.4023438 0.64648438 C 3.4023437 0.28786832 3.1125222 0 2.7539062 0 L 1.0253906 0 z M 1.2246094 0.61328125 C 1.5099447 0.61328121 1.75 0.85138334 1.75 1.1367188 C 1.75 1.422054 1.5099447 1.6542969 1.2246094 1.6542969 C 0.939274 1.6542969 0.70898437 1.422054 0.70898438 1.1367188 C 0.70898437 0.85138334 0.939274 0.61328125 1.2246094 0.61328125 z M 2.7402344 0.70703125 A 0.14173229 0.14173229 0 0 1 2.828125 0.73828125 A 0.14173229 0.14173229 0 0 1 2.8496094 0.9375 L 1.1523438 3.0195312 A 0.14173229 0.14173229 0 0 1 0.953125 3.0410156 A 0.14173229 0.14173229 0 0 1 0.9296875 2.8417969 L 2.6289062 0.75976562 A 0.14173229 0.14173229 0 0 1 2.7167969 0.70898438 A 0.14173229 0.14173229 0 0 1 2.7402344 0.70703125 z M 1.2246094 0.90039062 C 1.0924696 0.90039063 0.98828125 1.004579 0.98828125 1.1367188 C 0.98828125 1.2688584 1.0924696 1.3730469 1.2246094 1.3730469 C 1.3567491 1.3730469 1.4609375 1.2688584 1.4609375 1.1367188 C 1.4609375 1.004579 1.3567491 0.90039063 1.2246094 0.90039062 z M 2.5546875 2.1269531 C 2.8400229 2.1269531 3.0703125 2.3572428 3.0703125 2.6425781 C 3.0703125 2.9279135 2.8400229 3.1660156 2.5546875 3.1660156 C 2.2693521 3.1660156 2.0292969 2.9279135 2.0292969 2.6425781 C 2.0292968 2.3572428 2.2693521 2.1269531 2.5546875 2.1269531 z M 2.5546875 2.40625 C 2.4225478 2.40625 2.3183594 2.5104384 2.3183594 2.6425781 C 2.3183594 2.7747179 2.4225478 2.8789063 2.5546875 2.8789062 C 2.6868272 2.8789063 2.7910156 2.7747179 2.7910156 2.6425781 C 2.7910156 2.5104384 2.6868272 2.40625 2.5546875 2.40625 z "
       transform="scale(0.26458333)" />
  </g>
  <style
     id="style833" />
</svg>
